<!-- Generated by IcoMoon.io -->
<svg version="1.1" xmlns="http://www.w3.org/2000/svg" width="768" height="768" viewBox="0 0 768 768">
<title></title>
<g id="icomoon-ignore">
</g>
<path d="M160 512h-32c-8.832 0-16.8-3.552-22.624-9.376s-9.376-13.792-9.376-22.624v-320c0-8.832 3.552-16.8 9.376-22.624s13.792-9.376 22.624-9.376h512c8.832 0 16.8 3.552 22.624 9.376s9.376 13.792 9.376 22.624v320c0 8.832-3.552 16.8-9.376 22.624s-13.792 9.376-22.624 9.376h-32c-17.664 0-32 14.336-32 32s14.336 32 32 32h32c26.496 0 50.56-10.784 67.872-28.128s28.128-41.376 28.128-67.872v-320c0-26.496-10.784-50.56-28.128-67.872s-41.376-28.128-67.872-28.128h-512c-26.496 0-50.56 10.784-67.872 28.128s-28.128 41.376-28.128 67.872v320c0 26.496 10.784 50.56 28.128 67.872s41.376 28.128 67.872 28.128h32c17.664 0 32-14.336 32-32s-14.336-32-32-32zM408.576 459.52c-1.12-1.376-2.528-2.784-4.096-4.096-13.568-11.328-33.76-9.472-45.056 4.096l-160 192c-4.608 5.504-7.424 12.672-7.424 20.48 0 17.664 14.336 32 32 32h320c7.2 0.032 14.496-2.4 20.48-7.424 13.568-11.328 15.424-31.488 4.096-45.056zM384 529.984l91.68 110.016h-183.36z"></path>
</svg>
