<!-- Generated by IcoMoon.io -->
<svg version="1.1" xmlns="http://www.w3.org/2000/svg" width="640" height="640" viewBox="0 0 640 640">
<title></title>
<g id="icomoon-ignore">
</g>
<path d="M0 320c0-176.731 143.269-320 320-320s320 143.269 320 320v0c0 176.731-143.269 320-320 320s-320-143.269-320-320v0zM320 576c141.385 0 256-114.615 256-256s-114.615-256-256-256v0c-141.385 0-256 114.615-256 256s114.615 256 256 256v0zM342.4 238.72l113.6 113.28-45.12 45.12-90.88-89.92-90.56 89.6-45.12-44.8 135.68-135.68 22.4 22.4z"></path>
</svg>
