<!-- Generated by IcoMoon.io -->
<svg version="1.1" xmlns="http://www.w3.org/2000/svg" width="768" height="768" viewBox="0 0 768 768">
<title></title>
<g id="icomoon-ignore">
</g>
<path d="M236.864 321.056l-71.808-124.192c4.864-5.696 9.984-11.2 15.296-16.512 52.16-52.16 124.096-84.352 203.648-84.352s151.488 32.192 203.648 84.352c13.312 13.312 25.344 27.936 35.872 43.648h-239.52c-44.16 0-84.224 17.952-113.152 46.848-14.304 14.304-25.92 31.296-34.016 50.208zM342.4 733.568c1.472 0.256 2.944 0.448 4.448 0.48 12.192 1.28 24.608 1.952 37.152 1.952 97.184 0 185.248-39.424 248.896-103.104s103.104-151.712 103.104-248.896c0-49.248-10.144-96.16-28.416-138.752-0.512-1.408-1.088-2.752-1.76-4.032-17.696-39.808-42.56-75.744-72.928-106.112-63.648-63.68-151.712-103.104-248.896-103.104s-185.248 39.424-248.896 103.104c-11.712 11.68-22.592 24.224-32.544 37.472-1.344 1.504-2.528 3.104-3.552 4.768-42.144 58.016-67.008 129.472-67.008 206.656 0 97.184 39.424 185.248 103.104 248.896 54.432 54.432 126.72 91.168 207.296 100.672zM403.040 542.88l-71.712 124.32c-58.4-10.784-110.624-39.2-150.976-79.552-52.16-52.16-84.352-124.096-84.352-203.648 0-45.76 10.656-89.024 29.664-127.424l116.576 201.664c7.552 14.4 17.248 27.488 28.608 38.88 28.928 28.928 68.992 46.88 113.152 46.88 6.432 0 12.8-0.384 19.040-1.12zM468.416 429.792c-0.48 0.704-0.96 1.472-1.408 2.208l-2.432 4.224c-3.68 5.632-7.936 10.88-12.672 15.648-17.44 17.408-41.376 28.128-67.904 28.128s-50.464-10.72-67.872-28.128c-5.312-5.312-9.984-11.232-13.952-17.632-0.352-0.768-0.768-1.504-1.184-2.24l-2.624-4.512c-6.624-13.056-10.368-27.84-10.368-43.488 0-26.528 10.72-50.464 28.128-67.872s41.344-28.128 67.872-28.128 50.464 10.72 67.872 28.128 28.128 41.344 28.128 67.872c0 16.576-4.192 32.192-11.584 45.792zM402.816 671.392l116.48-201.952c15.648-24.704 24.704-54.016 24.704-85.44 0-36-11.936-69.28-32-96h143.616c10.624 30.016 16.384 62.336 16.384 96 0 79.552-32.192 151.488-84.352 203.648-48 48-112.8 79.104-184.832 83.744z"></path>
</svg>
