<!-- Generated by IcoMoon.io -->
<svg version="1.1" xmlns="http://www.w3.org/2000/svg" width="640" height="640" viewBox="0 0 640 640">
<title></title>
<g id="icomoon-ignore">
</g>
<path d="M288 640v-54.4l0.32-7.68 193.92-193.92h94.080c35.2 0 63.68 28.48 63.68 64v128c0 35.346-28.654 64-64 64v0h-288zM288 533.12v-362.24l66.56-66.24c11.533-11.579 27.49-18.743 45.12-18.743s33.587 7.164 45.118 18.741l90.562 90.562c11.501 11.568 18.611 27.514 18.611 45.12s-7.109 33.552-18.614 45.123l0.003-0.003-247.36 247.68zM0 63.68c0-34.88 28.48-63.68 64-63.68h128c35.346 0 64 28.654 64 64v0 512c0 35.346-28.654 64-64 64v0h-128c-35.346 0-64-28.654-64-64v0-512zM128 544c17.673 0 32-14.327 32-32s-14.327-32-32-32v0c-17.673 0-32 14.327-32 32s14.327 32 32 32v0z"></path>
</svg>
