<!-- Generated by IcoMoon.io -->
<svg version="1.1" xmlns="http://www.w3.org/2000/svg" width="768" height="768" viewBox="0 0 768 768">
<title></title>
<g id="icomoon-ignore">
</g>
<path d="M672 32h-576c-52.928 0-96 43.072-96 96v352c0 52.928 43.072 96 96 96h192v64h-96c-17.664 0-32 14.336-32 32s14.336 32 32 32h384c17.664 0 32-14.336 32-32s-14.336-32-32-32h-96v-64h192c52.928 0 96-43.072 96-96v-352c0-52.928-43.072-96-96-96zM448 640h-128v-64h128v64zM704 480c0 17.632-14.368 32-32 32h-576c-17.632 0-32-14.368-32-32v-352c0-17.632 14.368-32 32-32h576c17.632 0 32 14.368 32 32v352z"></path>
<path d="M640 128h-512c-17.6 0-32 14.4-32 32v256c0 17.6 14.4 32 32 32h512c17.6 0 32-14.4 32-32v-256c0-17.6-14.4-32-32-32zM640 416h-512v-256h512v256z"></path>
</svg>
