<!-- Generated by IcoMoon.io -->
<svg version="1.1" xmlns="http://www.w3.org/2000/svg" width="768" height="768" viewBox="0 0 768 768">
<title></title>
<g id="icomoon-ignore">
</g>
<path d="M512 352h-256v-256h256zM256 416h256v256h-256zM192 192h-96v-58.24c0-10.432 4.192-19.84 11.072-26.688s16.256-11.072 26.688-11.072h58.24zM96 256h96v96h-96zM192 512h-96v-96h96zM96 576h96v96h-58.24c-10.432 0-19.84-4.192-26.688-11.072s-11.072-16.256-11.072-26.688zM672 512h-96v-96h96zM576 576h96v58.24c0 10.432-4.192 19.84-11.072 26.688s-16.256 11.072-26.688 11.072h-58.24zM672 192h-96v-96h58.24c10.432 0 19.84 4.192 26.688 11.072s11.072 16.256 11.072 26.688zM736 224v-90.24c0-28.096-11.424-53.568-29.792-71.968s-43.872-29.792-71.968-29.792h-500.48c-28.096 0-53.568 11.424-71.968 29.792s-29.792 43.872-29.792 71.968v500.48c0 28.096 11.424 53.568 29.792 71.968s43.872 29.792 71.968 29.792h500.48c28.096 0 53.568-11.424 71.968-29.792s29.792-43.872 29.792-71.968zM576 256h96v96h-96z"></path>
</svg>
