<!-- Generated by IcoMoon.io -->
<svg version="1.1" xmlns="http://www.w3.org/2000/svg" width="640" height="640" viewBox="0 0 640 640">
<title></title>
<g id="icomoon-ignore">
</g>
<path d="M512 256c0-106.039-85.961-192-192-192s-192 85.961-192 192v0 352h-64c-35.346 0-64-28.654-64-64v0-128c0-35.346 28.654-64 64-64v0-96c0-141.385 114.615-256 256-256s256 114.615 256 256v0 96c35.346 0 64 28.654 64 64v0 128c0 35.346-28.654 64-64 64v0h-64v-352zM384 320h96v320h-96v-320zM160 320h96v320h-96v-320z"></path>
</svg>
