<!-- Generated by IcoMoon.io -->
<svg version="1.1" xmlns="http://www.w3.org/2000/svg" width="768" height="768" viewBox="0 0 768 768">
<title></title>
<g id="icomoon-ignore">
</g>
<path d="M672 416c0-158.816-129.184-288-288-288s-288 129.184-288 288v83.2c0 1.28 0.608 2.368 0.736 3.616-0.416 7.776-0.736 16-0.736 25.184v64c0 61.76 50.24 112 112 112s112-50.24 112-112v-64c0-48.352-26.56-89.28-63.424-104.896 3.040-67.904 58.784-122.336 127.424-122.336s124.384 54.4 127.424 122.304c-36.864 15.68-63.424 56.576-63.424 104.928v64c0 61.76 50.24 112 112 112s112-50.24 112-112v-64c0-9.184-0.32-17.408-0.736-25.184 0.128-1.248 0.736-2.336 0.736-3.616v-83.2zM160 416c0-50.752 17.216-97.472 45.824-135.072l28.48 28.448c-23.744 29.696-38.976 66.4-41.664 106.624-0.64 0-0.64 32-0.64 32h-32v-32zM256 592c0 26.464-21.536 48-48 48s-48-21.536-48-48v-64c0-21.312 1.824-37.632 3.648-48h60.352c15.136 0 32 19.712 32 48v64zM504.64 293.184l-11.328 11.328c-29.184-29.216-68-45.312-109.312-45.312s-80.128 16.096-109.344 45.312l-67.904-67.872c47.328-47.36 110.304-73.44 177.248-73.44 66.976 0 129.92 26.080 177.248 73.44l-56.608 56.544zM608 592c0 26.464-21.536 48-48 48s-48-21.536-48-48v-64c0-28.288 16.864-48 32-48h60.352c1.824 10.368 3.648 26.688 3.648 48v64zM608 448h-32v-32c-3.328-40.224-18.56-76.928-42.304-106.624l28.512-28.448c28.576 37.6 45.792 84.288 45.792 135.072v32z"></path>
</svg>
