<!-- Generated by IcoMoon.io -->
<svg version="1.1" xmlns="http://www.w3.org/2000/svg" width="768" height="768" viewBox="0 0 768 768">
<title></title>
<g id="icomoon-ignore">
</g>
<path d="M510.144 517.824c75.968 0 113.856-25.312 113.856-75.936 0-41.728-23.968-68.224-72.128-79.68l-35.808-7.52c-20.384-5.088-30.432-15.84-30.432-32.288 0-19.008 12.672-28.448 37.952-28.448 27.808 0 42.336 10.688 43.616 32.192l54.944-5.696c-3.648-46.816-35.488-70.24-94.784-70.24-64.608 0-96.832 26.624-96.832 79.84 0 37.824 20.928 61.92 62.656 72.032l38.016 7.552c25.28 6.272 37.952 17.76 37.952 34.176 0 20.192-19.648 30.368-58.944 30.368-47.936 0-79.648-23.424-94.784-70.24l-19.104-55.072c-11.328-36.64-25.472-62.304-42.688-76.832-16.96-14.4-43.744-21.856-80.608-21.856-34.208 0-64.224 12.672-90.080 38.016-25.952 25.312-38.944 58.816-38.944 100.544 0 39.136 12.256 70.496 36.992 93.92 24.768 23.456 54.016 35.168 88.192 35.168 34.208 0 61.376-8.192 81.6-24.64l-16.96-47.52c-17.728 17.792-38.752 26.656-62.72 26.656-20.16 0-37.6-7.936-52.096-23.808-14.56-15.744-21.952-36.384-21.952-61.664 0-31.648 7.904-54.656 23.776-69.216 15.904-14.56 33.792-21.792 54.048-21.792 21.568 0 36.96 5.664 46.624 16.96 9.472 11.424 17.92 29.184 25.504 53.184l17.184 55.072c20.224 64.448 68.928 96.768 145.952 96.768"></path>
</svg>
