<!-- Generated by IcoMoon.io -->
<svg version="1.1" xmlns="http://www.w3.org/2000/svg" width="768" height="768" viewBox="0 0 768 768">
<title></title>
<g id="icomoon-ignore">
</g>
<path d="M288 128c40.928 0 81.888 15.616 113.12 46.88l110.88 113.12 160 160-224 224-175.936-175.936c-1.184 1.056-97.184-94.944-97.184-94.944-62.496-62.496-62.496-163.808 0-226.24 31.232-31.264 72.192-46.88 113.12-46.88M288 64c-59.84 0-116.096 23.328-158.368 65.632-42.304 42.24-65.632 98.496-65.632 158.336s23.328 116.096 65.632 158.4l96 96c3.424 3.424 7.264 6.432 11.2 8.928l165.984 165.952c12.512 12.512 28.8 18.752 45.216 18.752s32.704-6.24 45.248-18.752l224-224c24.96-24.992 24.96-65.504 0-90.496l-160-160-110.4-112.672c-42.784-42.752-99.040-66.080-158.88-66.080z"></path>
<path d="M288 239.936c26.528 0 48 21.504 48 48.064s-21.472 47.936-48 47.936-48-21.376-48-47.936 21.472-48.064 48-48.064M288 207.936c-44.128 0-80 35.904-80 80.064 0 44.064 35.872 79.936 80 79.936s80-35.872 80-79.936c0-44.16-35.872-80.064-80-80.064z"></path>
</svg>
