<!-- Generated by IcoMoon.io -->
<svg version="1.1" xmlns="http://www.w3.org/2000/svg" width="640" height="640" viewBox="0 0 640 640">
<title></title>
<g id="icomoon-ignore">
</g>
<path d="M496 352h-352c-8.8 0-16 7.2-16 16v32c0 8.832 7.2 16 16 16h352c8.832 0 16-7.168 16-16v-32c0-8.8-7.168-16-16-16zM496 224h-352c-8.8 0-16 7.2-16 16v32c0 8.832 7.2 16 16 16h352c8.832 0 16-7.168 16-16v-32c0-8.8-7.168-16-16-16zM336 480h-192c-8.8 0-16 7.2-16 16v32c0 8.832 7.2 16 16 16h192c8.832 0 16-7.168 16-16v-32c0-8.8-7.168-16-16-16zM496 96h-352c-8.8 0-16 7.2-16 16v32c0 8.832 7.2 16 16 16h352c8.832 0 16-7.168 16-16v-32c0-8.8-7.168-16-16-16z"></path>
</svg>
