<!-- Generated by IcoMoon.io -->
<svg version="1.1" xmlns="http://www.w3.org/2000/svg" width="768" height="768" viewBox="0 0 768 768">
<title></title>
<g id="icomoon-ignore">
</g>
<path d="M544 288c0-44.192-17.92-84.192-46.848-113.12-28.96-28.96-68.96-46.88-113.152-46.88s-84.192 17.92-113.152 46.88c-28.928 28.928-46.848 68.928-46.848 113.12s17.92 84.192 46.848 113.12c28.96 28.96 68.96 46.88 113.152 46.88s84.192-17.92 113.152-46.88c28.928-28.928 46.848-68.928 46.848-113.12z"></path>
<path d="M192 608c0 32 72 64 192 64 112.576 0 192-32 192-64 0-64-75.328-128-192-128-120 0-192 64-192 128z"></path>
</svg>
